<svg width="1280" height="596" viewBox="0 0 1280 596" fill="none" xmlns="http://www.w3.org/2000/svg">
<rect width="1280" height="596" fill="url(#paint0_linear_283_519)"/>
<g opacity="0.8">
<g filter="url(#filter0_i_283_519)">
<path d="M1 0.103271L161.5 297.504L1 594.905V0.103271Z" fill="#006B6B"/>
<path d="M1 0.103271L161.5 297.504L1 594.905V0.103271Z" fill="url(#paint1_linear_283_519)" fill-opacity="0.1"/>
</g>
<g filter="url(#filter1_i_283_519)">
<path d="M0 0.103271H98V180.844L0 0.103271Z" fill="#005F5F"/>
<path d="M0 0.103271H98V180.844L0 0.103271Z" fill="url(#paint2_linear_283_519)" fill-opacity="0.15"/>
</g>
<g filter="url(#filter2_i_283_519)">
<path d="M0 594.905H98V414.164L0 594.905Z" fill="#005F5F"/>
<path d="M0 594.905H98V414.164L0 594.905Z" fill="url(#paint3_linear_283_519)" fill-opacity="0.15"/>
</g>
<g filter="url(#filter3_i_283_519)">
<path d="M98 0.103271H207L167.5 298.599L207 594.905H98V413.616L160.5 296.956L98 179.749V0.103271Z" fill="#006C6F"/>
<path d="M98 0.103271H207L167.5 298.599L207 594.905H98V413.616L160.5 296.956L98 179.749V0.103271Z" fill="url(#paint4_linear_283_519)" fill-opacity="0.1"/>
</g>
<g filter="url(#filter4_i_283_519)">
<path d="M205.5 0.103271L306 297.504L207.5 596L167 297.504L205.5 0.103271Z" fill="#00767A"/>
<path d="M205.5 0.103271L306 297.504L207.5 596L167 297.504L205.5 0.103271Z" fill="url(#paint5_linear_283_519)" fill-opacity="0.1"/>
</g>
<g filter="url(#filter5_i_283_519)">
<path d="M206 0.103271H370L307 301.338L206 0.103271Z" fill="#00737A"/>
<path d="M206 0.103271H370L307 301.338L206 0.103271Z" fill="url(#paint6_linear_283_519)" fill-opacity="0.1"/>
</g>
<g filter="url(#filter6_i_283_519)">
<path d="M206 594.905H370L307 293.67L206 594.905Z" fill="#00737A"/>
<path d="M206 594.905H370L307 293.67L206 594.905Z" fill="url(#paint7_linear_283_519)" fill-opacity="0.1"/>
</g>
<g filter="url(#filter7_i_283_519)">
<path d="M368.5 0.103271L448 298.599L368.5 594.905L306 296.956L368.5 0.103271Z" fill="#006C78"/>
<path d="M368.5 0.103271L448 298.599L368.5 594.905L306 296.956L368.5 0.103271Z" fill="url(#paint8_linear_283_519)" fill-opacity="0.05"/>
</g>
<g filter="url(#filter8_i_283_519)">
<path d="M366 0H553L509.535 290.14L550.473 594.951H368.527L448.381 299.92L366 0Z" fill="#005360"/>
<path d="M366 0H553L509.535 290.14L550.473 594.951H368.527L448.381 299.92L366 0Z" fill="url(#paint9_linear_283_519)" fill-opacity="0.1"/>
</g>
<g filter="url(#filter9_i_283_519)">
<path d="M551 0.103271H633V594.905H548.5L508.5 289.288L551 0.103271Z" fill="#055367"/>
<path d="M551 0.103271H633V594.905H548.5L508.5 289.288L551 0.103271Z" fill="url(#paint10_linear_283_519)" fill-opacity="0.05"/>
</g>
<g filter="url(#filter10_i_283_519)">
<path d="M633 0.103271L668.5 291.479L633 594.905V0.103271Z" fill="#11617A"/>
<path d="M633 0.103271L668.5 291.479L633 594.905V0.103271Z" fill="url(#paint11_linear_283_519)" fill-opacity="0.1"/>
</g>
<g filter="url(#filter11_i_283_519)">
<path d="M633 0.103271H733V594.905H633L669.5 287.645L633 0.103271Z" fill="#287390"/>
<path d="M633 0.103271H733V594.905H633L669.5 287.645L633 0.103271Z" fill="url(#paint12_linear_283_519)" fill-opacity="0.15"/>
</g>
<g filter="url(#filter12_i_283_519)">
<path d="M813.056 0.103271H886.357C886.357 0.103271 886.357 187.416 909.206 297.504C932.056 407.591 932.056 594.905 932.056 594.905H784.056C784.056 594.905 781.881 444.835 804.718 297.504C827.556 150.173 813.056 0.103271 813.056 0.103271Z" fill="#4F85AB"/>
<path d="M813.056 0.103271H886.357C886.357 0.103271 886.357 187.416 909.206 297.504C932.056 407.591 932.056 594.905 932.056 594.905H784.056C784.056 594.905 781.881 444.835 804.718 297.504C827.556 150.173 813.056 0.103271 813.056 0.103271Z" fill="url(#paint13_linear_283_519)" fill-opacity="0.15"/>
</g>
<g filter="url(#filter13_i_283_519)">
<path d="M881 0H1008.82C1008.82 0 1018.18 197.221 984.142 297.475C950.108 397.729 959.461 594.951 959.461 594.951H928.804C928.804 594.951 928.804 445.391 904.902 297.475C881 149.559 881 0 881 0Z" fill="#4C75A1"/>
<path d="M881 0H1008.82C1008.82 0 1018.18 197.221 984.142 297.475C950.108 397.729 959.461 594.951 959.461 594.951H928.804C928.804 594.951 928.804 445.391 904.902 297.475C881 149.559 881 0 881 0Z" fill="url(#paint14_linear_283_519)" fill-opacity="0.1"/>
</g>
<g filter="url(#filter14_i_283_519)">
<path d="M1006.91 0H1068.42C1068.42 0 1047.74 63.2341 1058.08 129.218C1068.42 195.201 1066.61 196.851 1098.4 314.521C1130.19 432.192 1132 594.951 1132 594.951H957.284C957.284 594.951 945.395 525.118 957.284 433.291C969.173 341.464 982.096 297.475 982.096 297.475C982.096 297.475 1001.22 234.241 1006.91 151.762C1012.59 69.2826 1006.91 0 1006.91 0Z" fill="#5168A4"/>
<path d="M1006.91 0H1068.42C1068.42 0 1047.74 63.2341 1058.08 129.218C1068.42 195.201 1066.61 196.851 1098.4 314.521C1130.19 432.192 1132 594.951 1132 594.951H957.284C957.284 594.951 945.395 525.118 957.284 433.291C969.173 341.464 982.096 297.475 982.096 297.475C982.096 297.475 1001.22 234.241 1006.91 151.762C1012.59 69.2826 1006.91 0 1006.91 0Z" fill="url(#paint15_linear_283_519)" fill-opacity="0.2"/>
</g>
<g filter="url(#filter15_i_283_519)">
<path d="M1068.55 0.103271H1150.05C1150.05 0.103271 1137.4 30.7331 1134.55 57.064C1131.33 86.7371 1136.7 127.992 1142.05 157.293C1156.55 236.709 1176.05 309.553 1176.05 309.553C1176.05 309.553 1150.05 384.04 1139.05 459.623C1134.47 491.095 1131.89 514.069 1136.05 545.612C1140.2 577.155 1150.05 594.357 1150.05 594.357H1131.05C1131.05 594.357 1128.16 502.934 1121.55 444.835C1114.58 383.593 1107.55 352.274 1092.55 292.575C1085.32 263.794 1079.64 246.207 1074.05 216.992C1067.55 183.035 1062.05 161.675 1058.05 126.622C1054.97 99.6675 1053.55 85.5443 1057.05 57.064C1060.55 28.5836 1068.55 0.103271 1068.55 0.103271Z" fill="#6375B7"/>
<path d="M1068.55 0.103271H1150.05C1150.05 0.103271 1137.4 30.7331 1134.55 57.064C1131.33 86.7371 1136.7 127.992 1142.05 157.293C1156.55 236.709 1176.05 309.553 1176.05 309.553C1176.05 309.553 1150.05 384.04 1139.05 459.623C1134.47 491.095 1131.89 514.069 1136.05 545.612C1140.2 577.155 1150.05 594.357 1150.05 594.357H1131.05C1131.05 594.357 1128.16 502.934 1121.55 444.835C1114.58 383.593 1107.55 352.274 1092.55 292.575C1085.32 263.794 1079.64 246.207 1074.05 216.992C1067.55 183.035 1062.05 161.675 1058.05 126.622C1054.97 99.6675 1053.55 85.5443 1057.05 57.064C1060.55 28.5836 1068.55 0.103271 1068.55 0.103271Z" fill="url(#paint16_linear_283_519)" fill-opacity="0.1"/>
</g>
<g filter="url(#filter16_i_283_519)">
<path d="M1146.97 0.27832H1204.99C1204.99 0.27832 1214.6 46.3381 1215.73 76.3165C1216.99 109.504 1213.63 128.191 1209.29 161.107C1201.65 218.985 1175.45 306.619 1175.45 306.619C1175.45 306.619 1149.86 213.478 1141.07 152.355C1136.39 119.838 1130.25 101.444 1132.47 68.658C1134.32 41.4032 1146.97 0.27832 1146.97 0.27832Z" fill="#7887CA"/>
<path d="M1146.97 0.27832H1204.99C1204.99 0.27832 1214.6 46.3381 1215.73 76.3165C1216.99 109.504 1213.63 128.191 1209.29 161.107C1201.65 218.985 1175.45 306.619 1175.45 306.619C1175.45 306.619 1149.86 213.478 1141.07 152.355C1136.39 119.838 1130.25 101.444 1132.47 68.658C1134.32 41.4032 1146.97 0.27832 1146.97 0.27832Z" fill="url(#paint17_linear_283_519)" fill-opacity="0.2"/>
</g>
<g filter="url(#filter17_i_283_519)">
<path d="M1175.66 306.619C1175.66 306.619 1187.48 346.116 1193.2 374.437C1198.92 402.754 1200.69 409.903 1205.59 438.395C1207.88 451.731 1210.33 469.586 1211.78 483.056C1213.32 497.405 1214.26 507.774 1214.88 522.203C1215.47 536.197 1213.71 559.144 1213.71 559.144L1211.78 593.88H1148.29C1148.29 593.88 1141.04 578.108 1137.97 565.76C1134.62 552.34 1133.12 544.333 1132.29 530.473C1131.41 515.861 1132.7 504.263 1133.84 489.672C1134.96 475.315 1137.07 465.797 1139.52 451.628C1149.63 393.012 1175.66 306.619 1175.66 306.619Z" fill="#575FA9"/>
<path d="M1175.66 306.619C1175.66 306.619 1187.48 346.116 1193.2 374.437C1198.92 402.754 1200.69 409.903 1205.59 438.395C1207.88 451.731 1210.33 469.586 1211.78 483.056C1213.32 497.405 1214.26 507.774 1214.88 522.203C1215.47 536.197 1213.71 559.144 1213.71 559.144L1211.78 593.88H1148.29C1148.29 593.88 1141.04 578.108 1137.97 565.76C1134.62 552.34 1133.12 544.333 1132.29 530.473C1131.41 515.861 1132.7 504.263 1133.84 489.672C1134.96 475.315 1137.07 465.797 1139.52 451.628C1149.63 393.012 1175.66 306.619 1175.66 306.619Z" fill="url(#paint18_linear_283_519)" fill-opacity="0.1"/>
</g>
<g filter="url(#filter18_i_283_519)">
<path d="M1205.18 0.103271H1280V594.905H1211.5C1211.5 594.905 1215.83 551.535 1215 523.704C1214.16 495.279 1209 459.623 1209 459.623C1209 459.623 1204.59 431.569 1202.5 419.093C1199.85 403.316 1197.05 395.049 1193.5 379.659C1186.98 351.392 1176.5 307.363 1176.5 307.363C1176.5 307.363 1189.59 260.221 1196.5 229.589C1203.21 199.86 1207.88 183.278 1211.5 152.911C1213.13 139.278 1213.56 131.569 1214.5 117.859C1215.59 102.052 1217.14 93.1641 1216.5 77.3289C1215.88 62.008 1213.72 53.5839 1211.5 38.4422C1209.3 23.4205 1205.18 0.103271 1205.18 0.103271Z" fill="#5357AE"/>
<path d="M1205.18 0.103271H1280V594.905H1211.5C1211.5 594.905 1215.83 551.535 1215 523.704C1214.16 495.279 1209 459.623 1209 459.623C1209 459.623 1204.59 431.569 1202.5 419.093C1199.85 403.316 1197.05 395.049 1193.5 379.659C1186.98 351.392 1176.5 307.363 1176.5 307.363C1176.5 307.363 1189.59 260.221 1196.5 229.589C1203.21 199.86 1207.88 183.278 1211.5 152.911C1213.13 139.278 1213.56 131.569 1214.5 117.859C1215.59 102.052 1217.14 93.1641 1216.5 77.3289C1215.88 62.008 1213.72 53.5839 1211.5 38.4422C1209.3 23.4205 1205.18 0.103271 1205.18 0.103271Z" fill="url(#paint19_linear_283_519)" fill-opacity="0.1"/>
</g>
</g>
<g filter="url(#filter19_i_283_519)">
<path fill-rule="evenodd" clip-rule="evenodd" d="M733 0V594.905H788.127C791.102 504.328 799.057 403.26 806.396 310.018C817.876 164.158 827.849 37.4472 814.896 0H733Z" fill="#397E9F"/>
<path fill-rule="evenodd" clip-rule="evenodd" d="M733 0V594.905H788.127C791.102 504.328 799.057 403.26 806.396 310.018C817.876 164.158 827.849 37.4472 814.896 0H733Z" fill="url(#paint20_linear_283_519)" fill-opacity="0.1"/>
</g>
<defs>
<filter id="filter0_i_283_519" x="1" y="0.103271" width="160.5" height="594.801" filterUnits="userSpaceOnUse" color-interpolation-filters="sRGB">
<feFlood flood-opacity="0" result="BackgroundImageFix"/>
<feBlend mode="normal" in="SourceGraphic" in2="BackgroundImageFix" result="shape"/>
<feColorMatrix in="SourceAlpha" type="matrix" values="0 0 0 0 0 0 0 0 0 0 0 0 0 0 0 0 0 0 127 0" result="hardAlpha"/>
<feOffset/>
<feGaussianBlur stdDeviation="10"/>
<feComposite in2="hardAlpha" operator="arithmetic" k2="-1" k3="1"/>
<feColorMatrix type="matrix" values="0 0 0 0 0.137255 0 0 0 0 0.14902 0 0 0 0 0.156863 0 0 0 0.05 0"/>
<feBlend mode="normal" in2="shape" result="effect1_innerShadow_283_519"/>
</filter>
<filter id="filter1_i_283_519" x="0" y="0.103271" width="98" height="180.741" filterUnits="userSpaceOnUse" color-interpolation-filters="sRGB">
<feFlood flood-opacity="0" result="BackgroundImageFix"/>
<feBlend mode="normal" in="SourceGraphic" in2="BackgroundImageFix" result="shape"/>
<feColorMatrix in="SourceAlpha" type="matrix" values="0 0 0 0 0 0 0 0 0 0 0 0 0 0 0 0 0 0 127 0" result="hardAlpha"/>
<feOffset/>
<feGaussianBlur stdDeviation="10"/>
<feComposite in2="hardAlpha" operator="arithmetic" k2="-1" k3="1"/>
<feColorMatrix type="matrix" values="0 0 0 0 0.137255 0 0 0 0 0.14902 0 0 0 0 0.156863 0 0 0 0.05 0"/>
<feBlend mode="normal" in2="shape" result="effect1_innerShadow_283_519"/>
</filter>
<filter id="filter2_i_283_519" x="0" y="414.164" width="98" height="180.741" filterUnits="userSpaceOnUse" color-interpolation-filters="sRGB">
<feFlood flood-opacity="0" result="BackgroundImageFix"/>
<feBlend mode="normal" in="SourceGraphic" in2="BackgroundImageFix" result="shape"/>
<feColorMatrix in="SourceAlpha" type="matrix" values="0 0 0 0 0 0 0 0 0 0 0 0 0 0 0 0 0 0 127 0" result="hardAlpha"/>
<feOffset/>
<feGaussianBlur stdDeviation="10"/>
<feComposite in2="hardAlpha" operator="arithmetic" k2="-1" k3="1"/>
<feColorMatrix type="matrix" values="0 0 0 0 0.137255 0 0 0 0 0.14902 0 0 0 0 0.156863 0 0 0 0.05 0"/>
<feBlend mode="normal" in2="shape" result="effect1_innerShadow_283_519"/>
</filter>
<filter id="filter3_i_283_519" x="98" y="0.103271" width="109" height="594.801" filterUnits="userSpaceOnUse" color-interpolation-filters="sRGB">
<feFlood flood-opacity="0" result="BackgroundImageFix"/>
<feBlend mode="normal" in="SourceGraphic" in2="BackgroundImageFix" result="shape"/>
<feColorMatrix in="SourceAlpha" type="matrix" values="0 0 0 0 0 0 0 0 0 0 0 0 0 0 0 0 0 0 127 0" result="hardAlpha"/>
<feOffset/>
<feGaussianBlur stdDeviation="10"/>
<feComposite in2="hardAlpha" operator="arithmetic" k2="-1" k3="1"/>
<feColorMatrix type="matrix" values="0 0 0 0 0.137255 0 0 0 0 0.14902 0 0 0 0 0.156863 0 0 0 0.05 0"/>
<feBlend mode="normal" in2="shape" result="effect1_innerShadow_283_519"/>
</filter>
<filter id="filter4_i_283_519" x="167" y="0.103271" width="139" height="595.897" filterUnits="userSpaceOnUse" color-interpolation-filters="sRGB">
<feFlood flood-opacity="0" result="BackgroundImageFix"/>
<feBlend mode="normal" in="SourceGraphic" in2="BackgroundImageFix" result="shape"/>
<feColorMatrix in="SourceAlpha" type="matrix" values="0 0 0 0 0 0 0 0 0 0 0 0 0 0 0 0 0 0 127 0" result="hardAlpha"/>
<feOffset/>
<feGaussianBlur stdDeviation="10"/>
<feComposite in2="hardAlpha" operator="arithmetic" k2="-1" k3="1"/>
<feColorMatrix type="matrix" values="0 0 0 0 0.137255 0 0 0 0 0.14902 0 0 0 0 0.156863 0 0 0 0.05 0"/>
<feBlend mode="normal" in2="shape" result="effect1_innerShadow_283_519"/>
</filter>
<filter id="filter5_i_283_519" x="206" y="0.103271" width="164" height="301.234" filterUnits="userSpaceOnUse" color-interpolation-filters="sRGB">
<feFlood flood-opacity="0" result="BackgroundImageFix"/>
<feBlend mode="normal" in="SourceGraphic" in2="BackgroundImageFix" result="shape"/>
<feColorMatrix in="SourceAlpha" type="matrix" values="0 0 0 0 0 0 0 0 0 0 0 0 0 0 0 0 0 0 127 0" result="hardAlpha"/>
<feOffset/>
<feGaussianBlur stdDeviation="10"/>
<feComposite in2="hardAlpha" operator="arithmetic" k2="-1" k3="1"/>
<feColorMatrix type="matrix" values="0 0 0 0 0.137255 0 0 0 0 0.14902 0 0 0 0 0.156863 0 0 0 0.05 0"/>
<feBlend mode="normal" in2="shape" result="effect1_innerShadow_283_519"/>
</filter>
<filter id="filter6_i_283_519" x="206" y="293.67" width="164" height="301.234" filterUnits="userSpaceOnUse" color-interpolation-filters="sRGB">
<feFlood flood-opacity="0" result="BackgroundImageFix"/>
<feBlend mode="normal" in="SourceGraphic" in2="BackgroundImageFix" result="shape"/>
<feColorMatrix in="SourceAlpha" type="matrix" values="0 0 0 0 0 0 0 0 0 0 0 0 0 0 0 0 0 0 127 0" result="hardAlpha"/>
<feOffset/>
<feGaussianBlur stdDeviation="10"/>
<feComposite in2="hardAlpha" operator="arithmetic" k2="-1" k3="1"/>
<feColorMatrix type="matrix" values="0 0 0 0 0.137255 0 0 0 0 0.14902 0 0 0 0 0.156863 0 0 0 0.05 0"/>
<feBlend mode="normal" in2="shape" result="effect1_innerShadow_283_519"/>
</filter>
<filter id="filter7_i_283_519" x="306" y="0.103271" width="142" height="594.801" filterUnits="userSpaceOnUse" color-interpolation-filters="sRGB">
<feFlood flood-opacity="0" result="BackgroundImageFix"/>
<feBlend mode="normal" in="SourceGraphic" in2="BackgroundImageFix" result="shape"/>
<feColorMatrix in="SourceAlpha" type="matrix" values="0 0 0 0 0 0 0 0 0 0 0 0 0 0 0 0 0 0 127 0" result="hardAlpha"/>
<feOffset/>
<feGaussianBlur stdDeviation="10"/>
<feComposite in2="hardAlpha" operator="arithmetic" k2="-1" k3="1"/>
<feColorMatrix type="matrix" values="0 0 0 0 0.137255 0 0 0 0 0.14902 0 0 0 0 0.156863 0 0 0 0.05 0"/>
<feBlend mode="normal" in2="shape" result="effect1_innerShadow_283_519"/>
</filter>
<filter id="filter8_i_283_519" x="366" y="0" width="187" height="594.951" filterUnits="userSpaceOnUse" color-interpolation-filters="sRGB">
<feFlood flood-opacity="0" result="BackgroundImageFix"/>
<feBlend mode="normal" in="SourceGraphic" in2="BackgroundImageFix" result="shape"/>
<feColorMatrix in="SourceAlpha" type="matrix" values="0 0 0 0 0 0 0 0 0 0 0 0 0 0 0 0 0 0 127 0" result="hardAlpha"/>
<feOffset/>
<feGaussianBlur stdDeviation="10"/>
<feComposite in2="hardAlpha" operator="arithmetic" k2="-1" k3="1"/>
<feColorMatrix type="matrix" values="0 0 0 0 0.137255 0 0 0 0 0.14902 0 0 0 0 0.156863 0 0 0 0.05 0"/>
<feBlend mode="normal" in2="shape" result="effect1_innerShadow_283_519"/>
</filter>
<filter id="filter9_i_283_519" x="508.5" y="0.103271" width="124.5" height="594.801" filterUnits="userSpaceOnUse" color-interpolation-filters="sRGB">
<feFlood flood-opacity="0" result="BackgroundImageFix"/>
<feBlend mode="normal" in="SourceGraphic" in2="BackgroundImageFix" result="shape"/>
<feColorMatrix in="SourceAlpha" type="matrix" values="0 0 0 0 0 0 0 0 0 0 0 0 0 0 0 0 0 0 127 0" result="hardAlpha"/>
<feOffset/>
<feGaussianBlur stdDeviation="10"/>
<feComposite in2="hardAlpha" operator="arithmetic" k2="-1" k3="1"/>
<feColorMatrix type="matrix" values="0 0 0 0 0.137255 0 0 0 0 0.14902 0 0 0 0 0.156863 0 0 0 0.05 0"/>
<feBlend mode="normal" in2="shape" result="effect1_innerShadow_283_519"/>
</filter>
<filter id="filter10_i_283_519" x="633" y="0.103271" width="35.5" height="594.801" filterUnits="userSpaceOnUse" color-interpolation-filters="sRGB">
<feFlood flood-opacity="0" result="BackgroundImageFix"/>
<feBlend mode="normal" in="SourceGraphic" in2="BackgroundImageFix" result="shape"/>
<feColorMatrix in="SourceAlpha" type="matrix" values="0 0 0 0 0 0 0 0 0 0 0 0 0 0 0 0 0 0 127 0" result="hardAlpha"/>
<feOffset/>
<feGaussianBlur stdDeviation="10"/>
<feComposite in2="hardAlpha" operator="arithmetic" k2="-1" k3="1"/>
<feColorMatrix type="matrix" values="0 0 0 0 0.137255 0 0 0 0 0.14902 0 0 0 0 0.156863 0 0 0 0.05 0"/>
<feBlend mode="normal" in2="shape" result="effect1_innerShadow_283_519"/>
</filter>
<filter id="filter11_i_283_519" x="633" y="0.103271" width="100" height="594.801" filterUnits="userSpaceOnUse" color-interpolation-filters="sRGB">
<feFlood flood-opacity="0" result="BackgroundImageFix"/>
<feBlend mode="normal" in="SourceGraphic" in2="BackgroundImageFix" result="shape"/>
<feColorMatrix in="SourceAlpha" type="matrix" values="0 0 0 0 0 0 0 0 0 0 0 0 0 0 0 0 0 0 127 0" result="hardAlpha"/>
<feOffset/>
<feGaussianBlur stdDeviation="10"/>
<feComposite in2="hardAlpha" operator="arithmetic" k2="-1" k3="1"/>
<feColorMatrix type="matrix" values="0 0 0 0 0.137255 0 0 0 0 0.14902 0 0 0 0 0.156863 0 0 0 0.05 0"/>
<feBlend mode="normal" in2="shape" result="effect1_innerShadow_283_519"/>
</filter>
<filter id="filter12_i_283_519" x="784" y="0.103271" width="148.056" height="594.801" filterUnits="userSpaceOnUse" color-interpolation-filters="sRGB">
<feFlood flood-opacity="0" result="BackgroundImageFix"/>
<feBlend mode="normal" in="SourceGraphic" in2="BackgroundImageFix" result="shape"/>
<feColorMatrix in="SourceAlpha" type="matrix" values="0 0 0 0 0 0 0 0 0 0 0 0 0 0 0 0 0 0 127 0" result="hardAlpha"/>
<feOffset/>
<feGaussianBlur stdDeviation="10"/>
<feComposite in2="hardAlpha" operator="arithmetic" k2="-1" k3="1"/>
<feColorMatrix type="matrix" values="0 0 0 0 0.137255 0 0 0 0 0.14902 0 0 0 0 0.156863 0 0 0 0.05 0"/>
<feBlend mode="normal" in2="shape" result="effect1_innerShadow_283_519"/>
</filter>
<filter id="filter13_i_283_519" x="881" y="0" width="129" height="594.951" filterUnits="userSpaceOnUse" color-interpolation-filters="sRGB">
<feFlood flood-opacity="0" result="BackgroundImageFix"/>
<feBlend mode="normal" in="SourceGraphic" in2="BackgroundImageFix" result="shape"/>
<feColorMatrix in="SourceAlpha" type="matrix" values="0 0 0 0 0 0 0 0 0 0 0 0 0 0 0 0 0 0 127 0" result="hardAlpha"/>
<feOffset/>
<feGaussianBlur stdDeviation="10"/>
<feComposite in2="hardAlpha" operator="arithmetic" k2="-1" k3="1"/>
<feColorMatrix type="matrix" values="0 0 0 0 0.137255 0 0 0 0 0.14902 0 0 0 0 0.156863 0 0 0 0.05 0"/>
<feBlend mode="normal" in2="shape" result="effect1_innerShadow_283_519"/>
</filter>
<filter id="filter14_i_283_519" x="952" y="0" width="180" height="594.951" filterUnits="userSpaceOnUse" color-interpolation-filters="sRGB">
<feFlood flood-opacity="0" result="BackgroundImageFix"/>
<feBlend mode="normal" in="SourceGraphic" in2="BackgroundImageFix" result="shape"/>
<feColorMatrix in="SourceAlpha" type="matrix" values="0 0 0 0 0 0 0 0 0 0 0 0 0 0 0 0 0 0 127 0" result="hardAlpha"/>
<feOffset/>
<feGaussianBlur stdDeviation="10"/>
<feComposite in2="hardAlpha" operator="arithmetic" k2="-1" k3="1"/>
<feColorMatrix type="matrix" values="0 0 0 0 0.137255 0 0 0 0 0.14902 0 0 0 0 0.156863 0 0 0 0.05 0"/>
<feBlend mode="normal" in2="shape" result="effect1_innerShadow_283_519"/>
</filter>
<filter id="filter15_i_283_519" x="1055" y="0.103271" width="121.047" height="594.254" filterUnits="userSpaceOnUse" color-interpolation-filters="sRGB">
<feFlood flood-opacity="0" result="BackgroundImageFix"/>
<feBlend mode="normal" in="SourceGraphic" in2="BackgroundImageFix" result="shape"/>
<feColorMatrix in="SourceAlpha" type="matrix" values="0 0 0 0 0 0 0 0 0 0 0 0 0 0 0 0 0 0 127 0" result="hardAlpha"/>
<feOffset/>
<feGaussianBlur stdDeviation="10"/>
<feComposite in2="hardAlpha" operator="arithmetic" k2="-1" k3="1"/>
<feColorMatrix type="matrix" values="0 0 0 0 0.137255 0 0 0 0 0.14902 0 0 0 0 0.156863 0 0 0 0.05 0"/>
<feBlend mode="normal" in2="shape" result="effect1_innerShadow_283_519"/>
</filter>
<filter id="filter16_i_283_519" x="1132" y="0.27832" width="84" height="306.341" filterUnits="userSpaceOnUse" color-interpolation-filters="sRGB">
<feFlood flood-opacity="0" result="BackgroundImageFix"/>
<feBlend mode="normal" in="SourceGraphic" in2="BackgroundImageFix" result="shape"/>
<feColorMatrix in="SourceAlpha" type="matrix" values="0 0 0 0 0 0 0 0 0 0 0 0 0 0 0 0 0 0 127 0" result="hardAlpha"/>
<feOffset/>
<feGaussianBlur stdDeviation="10"/>
<feComposite in2="hardAlpha" operator="arithmetic" k2="-1" k3="1"/>
<feColorMatrix type="matrix" values="0 0 0 0 0.137255 0 0 0 0 0.14902 0 0 0 0 0.156863 0 0 0 0.05 0"/>
<feBlend mode="normal" in2="shape" result="effect1_innerShadow_283_519"/>
</filter>
<filter id="filter17_i_283_519" x="1132" y="306.619" width="83" height="287.261" filterUnits="userSpaceOnUse" color-interpolation-filters="sRGB">
<feFlood flood-opacity="0" result="BackgroundImageFix"/>
<feBlend mode="normal" in="SourceGraphic" in2="BackgroundImageFix" result="shape"/>
<feColorMatrix in="SourceAlpha" type="matrix" values="0 0 0 0 0 0 0 0 0 0 0 0 0 0 0 0 0 0 127 0" result="hardAlpha"/>
<feOffset/>
<feGaussianBlur stdDeviation="10"/>
<feComposite in2="hardAlpha" operator="arithmetic" k2="-1" k3="1"/>
<feColorMatrix type="matrix" values="0 0 0 0 0.137255 0 0 0 0 0.14902 0 0 0 0 0.156863 0 0 0 0.05 0"/>
<feBlend mode="normal" in2="shape" result="effect1_innerShadow_283_519"/>
</filter>
<filter id="filter18_i_283_519" x="1176.5" y="0.103271" width="103.5" height="594.801" filterUnits="userSpaceOnUse" color-interpolation-filters="sRGB">
<feFlood flood-opacity="0" result="BackgroundImageFix"/>
<feBlend mode="normal" in="SourceGraphic" in2="BackgroundImageFix" result="shape"/>
<feColorMatrix in="SourceAlpha" type="matrix" values="0 0 0 0 0 0 0 0 0 0 0 0 0 0 0 0 0 0 127 0" result="hardAlpha"/>
<feOffset/>
<feGaussianBlur stdDeviation="10"/>
<feComposite in2="hardAlpha" operator="arithmetic" k2="-1" k3="1"/>
<feColorMatrix type="matrix" values="0 0 0 0 0.137255 0 0 0 0 0.14902 0 0 0 0 0.156863 0 0 0 0.05 0"/>
<feBlend mode="normal" in2="shape" result="effect1_innerShadow_283_519"/>
</filter>
<filter id="filter19_i_283_519" x="733" y="0" width="88" height="594.905" filterUnits="userSpaceOnUse" color-interpolation-filters="sRGB">
<feFlood flood-opacity="0" result="BackgroundImageFix"/>
<feBlend mode="normal" in="SourceGraphic" in2="BackgroundImageFix" result="shape"/>
<feColorMatrix in="SourceAlpha" type="matrix" values="0 0 0 0 0 0 0 0 0 0 0 0 0 0 0 0 0 0 127 0" result="hardAlpha"/>
<feOffset/>
<feGaussianBlur stdDeviation="10"/>
<feComposite in2="hardAlpha" operator="arithmetic" k2="-1" k3="1"/>
<feColorMatrix type="matrix" values="0 0 0 0 0.137255 0 0 0 0 0.14902 0 0 0 0 0.156863 0 0 0 0.05 0"/>
<feBlend mode="normal" in2="shape" result="effect1_innerShadow_283_519"/>
</filter>
<linearGradient id="paint0_linear_283_519" x1="1.40386e-06" y1="395.06" x2="1281.02" y2="280.606" gradientUnits="userSpaceOnUse">
<stop stop-color="#00937B"/>
<stop offset="1" stop-color="#433E8F"/>
</linearGradient>
<linearGradient id="paint1_linear_283_519" x1="-86" y1="73.495" x2="179.007" y2="274.285" gradientUnits="userSpaceOnUse">
<stop offset="0.046875"/>
<stop offset="1" stop-color="white"/>
</linearGradient>
<linearGradient id="paint2_linear_283_519" x1="49" y1="0.103271" x2="103.93" y2="171.571" gradientUnits="userSpaceOnUse">
<stop/>
<stop offset="1" stop-color="white" stop-opacity="0.13"/>
</linearGradient>
<linearGradient id="paint3_linear_283_519" x1="14" y1="594.905" x2="101.214" y2="432.504" gradientUnits="userSpaceOnUse">
<stop/>
<stop offset="1" stop-color="white" stop-opacity="0.21"/>
</linearGradient>
<linearGradient id="paint4_linear_283_519" x1="98" y1="0.103271" x2="227.784" y2="590.334" gradientUnits="userSpaceOnUse">
<stop stop-color="#E4E4E4"/>
<stop offset="1" stop-color="#5C5C5C"/>
</linearGradient>
<linearGradient id="paint5_linear_283_519" x1="248" y1="0.10327" x2="191.091" y2="595.1" gradientUnits="userSpaceOnUse">
<stop stop-color="white" stop-opacity="0.22"/>
<stop offset="1"/>
</linearGradient>
<linearGradient id="paint6_linear_283_519" x1="288" y1="0.103271" x2="288" y2="301.338" gradientUnits="userSpaceOnUse">
<stop/>
<stop offset="1" stop-color="white" stop-opacity="0"/>
</linearGradient>
<linearGradient id="paint7_linear_283_519" x1="288" y1="594.905" x2="288" y2="293.67" gradientUnits="userSpaceOnUse">
<stop/>
<stop offset="1" stop-color="white" stop-opacity="0"/>
</linearGradient>
<linearGradient id="paint8_linear_283_519" x1="377" y1="0.103271" x2="377" y2="594.905" gradientUnits="userSpaceOnUse">
<stop/>
<stop offset="1" stop-opacity="0"/>
</linearGradient>
<linearGradient id="paint9_linear_283_519" x1="459.5" y1="0" x2="459.5" y2="594.951" gradientUnits="userSpaceOnUse">
<stop stop-color="white" stop-opacity="0.78"/>
<stop offset="1" stop-opacity="0"/>
</linearGradient>
<linearGradient id="paint10_linear_283_519" x1="570.75" y1="0.103271" x2="570.75" y2="594.905" gradientUnits="userSpaceOnUse">
<stop stop-color="#CBCBCB"/>
<stop offset="1" stop-color="white" stop-opacity="0.71"/>
</linearGradient>
<linearGradient id="paint11_linear_283_519" x1="701" y1="298.052" x2="633" y2="298.052" gradientUnits="userSpaceOnUse">
<stop/>
<stop offset="1" stop-color="white" stop-opacity="0.63"/>
</linearGradient>
<linearGradient id="paint12_linear_283_519" x1="733" y1="0.10327" x2="613.792" y2="591.03" gradientUnits="userSpaceOnUse">
<stop offset="0.0729167"/>
<stop offset="1" stop-color="white" stop-opacity="0.1"/>
</linearGradient>
<linearGradient id="paint13_linear_283_519" x1="858.028" y1="0.103271" x2="858.028" y2="594.905" gradientUnits="userSpaceOnUse">
<stop/>
<stop offset="1" stop-opacity="0"/>
</linearGradient>
<linearGradient id="paint14_linear_283_519" x1="945.5" y1="0" x2="945.5" y2="594.951" gradientUnits="userSpaceOnUse">
<stop/>
<stop offset="0.0001" stop-color="white" stop-opacity="0.54"/>
<stop offset="1"/>
</linearGradient>
<linearGradient id="paint15_linear_283_519" x1="1042" y1="0" x2="1042" y2="594.951" gradientUnits="userSpaceOnUse">
<stop/>
<stop offset="1" stop-opacity="0"/>
</linearGradient>
<linearGradient id="paint16_linear_283_519" x1="1115.52" y1="0.103271" x2="1115.52" y2="594.357" gradientUnits="userSpaceOnUse">
<stop/>
<stop offset="1" stop-color="white" stop-opacity="0.58"/>
</linearGradient>
<linearGradient id="paint17_linear_283_519" x1="1174" y1="0.27832" x2="1174" y2="306.619" gradientUnits="userSpaceOnUse">
<stop stop-color="#070933"/>
<stop offset="1" stop-color="white" stop-opacity="0.28"/>
</linearGradient>
<linearGradient id="paint18_linear_283_519" x1="1173.5" y1="306.619" x2="1173.5" y2="593.88" gradientUnits="userSpaceOnUse">
<stop stop-color="white" stop-opacity="0.76"/>
<stop offset="1"/>
</linearGradient>
<linearGradient id="paint19_linear_283_519" x1="1228.25" y1="0.103271" x2="1228.25" y2="594.905" gradientUnits="userSpaceOnUse">
<stop/>
<stop offset="1" stop-opacity="0"/>
</linearGradient>
<linearGradient id="paint20_linear_283_519" x1="777" y1="-27.2817" x2="777" y2="594.905" gradientUnits="userSpaceOnUse">
<stop stop-opacity="0"/>
<stop offset="1"/>
</linearGradient>
</defs>
</svg>
